<?xml version="1.0" encoding="UTF-8"?><svg id="a" xmlns="http://www.w3.org/2000/svg" viewBox="0 0 826.74 814.4"><path d="M826.5,396.43c2.89,80.24-20.25,159.09-61.32,224.12-129.66,205.3-407,256.3-601.62,110.67C65.54,657.87,2.07,541.45.05,415.71c-1.63-101.49,35.11-199.48,102-275.04C223.7,3.26,420.9-39.03,587.45,38.51c74.86,34.85,138.15,91.18,180.94,161.81,35.97,59.37,55.62,126.96,58.12,196.1Z" fill="#FF4D7A"/><path d="M423.66,792.2c212.13-4.98,387.43-182.23,380.66-395.61-2.85-89.85-38.04-175.45-97.51-242.31-67.53-75.91-160.73-122.73-262.29-131.11-59.35-4.9-119.75,4.46-175.45,26.4-80.24,31.61-147.63,89.28-192.25,162.95-31.37,51.79-49.72,110.57-53.92,171.11-10.22,147.28,69.63,286.47,197.29,357.93,61.66,35,131.64,52.68,203.48,50.63Z" fill="#FF4D7A"/><path d="M424.97,538.7c-.61-17.38-.56-57.91-11.06-70.1-6.9.89-10.25,26.76-10.45,31.49l-2.51,58.5c-.68,15.97-1.22,31.17-2.94,46.94-1.22,11.19-5.36,21.17-11.77,30.38-21.96,31.56-54.1,53.6-91.29,63.52-16.59,4.43-32.66,7.11-49.77,7.94-24.02,1.17-15.35-42.19-20.56-49.68-.92-1.32-4.33-2.14-6.16-1.78l-31.29,6.11c-7.35,1.44-16.07-1.64-18.35-9.09-15.54-50.86-9.01-109.71,24.21-152.39,14.05-18.05,31.57-23.05,52.57-30.56l80.8-28.91c5.39-1.93,22.38-9.31,23.26-14.94.18-1.14-2.67-2.87-3.83-3.02-10.78-1.42-21.07-.23-31.71,2.57l-65.75,17.26c-25.36,6.66-45.69,12.71-70.61,4.08-50.5-17.49-87.46-59.39-106.63-108.32-2.83-7.21,1.98-14.49,8.22-17.81,9.55-5.08,18.69-9.14,28.53-13.68,1.57-.73,3.74-2.23,4.19-3.5.51-1.45-.65-4.94-1.53-6.39-5.34-8.71-10.4-16.51-14.61-25.69-2.7-5.88-3.12-14.31,2.7-18.45,42.05-29.98,96.15-42.66,146.59-28.61,27.86,7.76,37.53,20.63,54.51,42.72l47.67,62c3.55,4.61,19.12,21.55,25.61,19.72,5.25-4.51-8.07-27.82-11.28-32.81l-25.1-38.99-27.22-42.86c-6.92-10.89-10.1-22.57-10.34-35.82-.95-53.21,24.71-99.45,64.77-133.08,6.47-5.43,15.9-5.18,22.11.35,7.9,7.04,14.65,14.35,21.85,22.22,1.09,1.19,3.52,2.71,4.89,2.85,1.56.17,4.58-1.45,5.82-2.76,7.24-7.64,13.56-14.67,21.26-21.87,4.73-4.42,14-7.12,19.66-2.72,22.77,17.73,41.13,40.13,53.22,66.42,11.33,24.64,19.78,64.93,10.39,90.6-3.78,10.33-9.24,19.49-15.27,28.76l-39.8,61.22c-4.63,7.12-20.2,31.6-14.8,38.93,7.7-2.1,13.8-6.85,19.13-12.96,13.44-15.4,25.28-31.47,37.86-47.7l29.74-38.34c24.02-30.98,76.46-35.31,111.83-29.26,26,4.45,49.18,14.61,71.24,28.5,22.99,14.47-5.2,37.09-9.2,53.17.22,2.32,5,4.78,7.23,5.76,8.94,3.92,17.36,7.61,25.69,12.13,7.99,4.34,10.79,12.44,7.32,20.95-19.76,48.44-55.93,88.26-106.2,105.46-14.11,4.83-27.9,5.28-42.5,2.19-16.34-3.46-31.92-7.6-48.15-11.75l-52.63-13.45c-5.23-1.34-25.19-3.71-27.98,1.35-4.82,8.77,73.56,33.63,81.23,36.41l45.61,16.5c14.97,5.42,25.7,15.39,34.6,28.49,18.92,27.86,28.12,60.72,27.39,94.68-.38,17.73-2.59,34.45-8.14,51.18-2.45,7.39-10.65,10.66-18.26,9.19l-31.35-6.06c-1.37-.26-4.5.4-5.5,1.32s-1.82,3.72-1.92,5.4c-.71,11.62-1.29,22.6-4.37,33.56-1.91,6.78-7.51,11.62-14.83,11.24-57-2.94-109.68-25.04-142.15-73.37-5.99-8.92-9.87-18.64-10.89-29.46-2.08-22.15-2.27-43.62-3.04-65.92Z" fill="#FFFFFF"/><circle cx="413.05" cy="317.62" r="21.16" fill="#C42050"/><circle cx="332.11" cy="377.21" r="21.17" fill="#C42050"/><circle cx="494.3" cy="377.29" r="21.11" fill="#C42050"/><circle cx="413.25" cy="402.55" r="27.99" fill="#C42050"/><circle cx="362.28" cy="472.82" r="21.08" fill="#C42050"/><circle cx="463.95" cy="472.74" r="21.09" fill="#C42050"/></svg>
