<svg width="1000" height="1000" viewBox="0 0 1000 1000" fill="none" xmlns="http://www.w3.org/2000/svg">
<g id="kashira" clip-path="url(#clip0_1_3)">
<circle id="Ellipse 1" cx="500" cy="500" r="500" fill="#FF4D7A"/>
<path id="Vector" d="M715.199 811.873C713.046 828.26 711.351 844.55 707.107 860.03C704.762 868.567 698.534 871.498 690.587 871.682C656.91 872.48 624.267 863.918 594.918 846.942C557.898 825.537 528.044 785.868 518.438 743.243C508.675 699.87 507.929 654.767 515.312 611.002C519.087 588.567 532.325 563.2 557.561 561.802C572.17 560.992 586.658 561.544 601.482 564.353C644.309 572.461 708.441 591.842 741.926 620.815C760.683 637.043 774.413 657.601 783.996 681.042C800.576 721.581 798.243 767.812 780.521 807.359C777.383 814.363 771.131 817.625 763.845 816.558C749.248 814.424 733.883 811.21 719.707 808.328C718.745 808.131 716.257 808.279 715.968 808.892C715.68 809.505 715.367 810.634 715.211 811.86L715.199 811.873Z" fill="white"/>
<path id="Vector_2" d="M300.143 870.529C287.386 861.759 286.304 822.115 283.563 807.543C267.079 811.173 252.038 814.571 236.299 816.73C228.448 817.809 222.352 814.019 218.938 806.623C201.312 768.45 198.931 723.581 214.165 683.863C224.264 657.515 239.834 634.332 261.584 617.049C295.057 590.444 354.055 572.915 395.524 564.574C410.841 561.495 425.931 560.796 441.2 561.888C451.119 562.599 459.548 565.874 466.305 573.308C475.647 583.575 480.697 595.914 483.173 610.204C490.231 650.916 489.75 692.449 482.692 733.259C477.402 763.863 464.489 790.358 444.494 813.21C429.574 830.247 412.897 843.507 392.482 853.259C363.554 867.083 332.257 874.074 300.143 870.542V870.529Z" fill="white"/>
<path id="Vector_3" d="M718.349 567.898C682.952 563.065 650.417 554.283 617.522 542.851C601.711 537.356 587.668 529.579 572.783 522.268C567.889 519.864 564.679 515.448 563.044 510.112C553.75 479.827 567.757 458.472 581.355 433.792C599.559 400.747 620.227 369.444 647.916 343.673C664.424 328.303 683.782 316.503 704.726 308.42C741.794 294.105 782.216 297.49 818.142 313.338C833.688 320.195 847.19 328.732 859.117 340.447C862.905 344.176 864.648 349.34 862.868 354.418C858.324 367.408 853.562 379.379 847.948 392.063C846.914 394.381 847.839 397.386 850.148 398.613C863.205 405.482 875.553 412.167 887.48 420.594C894.321 425.427 897.063 432.774 895.163 441.643C888.634 472.149 874.471 501.551 851.843 523.519C816.411 557.914 767.572 574.608 718.349 567.886V567.898Z" fill="white"/>
<path id="Vector_4" d="M287.014 567.211C238.44 574.951 191.417 561.201 154.397 529.591C137.66 515.301 125.625 497.552 116.415 477.325C110.572 464.482 105.715 451.517 104.152 437.583C103.31 430.125 105.979 423.844 112.027 419.956C124.303 412.081 136.362 405.237 149.275 398.061C150.922 397.141 152.173 394.369 151.475 392.737C146.149 380.164 141.58 368.61 137.083 355.951C134.811 349.548 136.578 343.415 141.917 338.619C187.966 297.257 253.829 287.812 309.822 316.111C323.673 323.115 336.718 331.21 348.344 341.636C382.791 372.523 410.445 418.484 431.834 459.588C439.288 473.903 441.068 490.597 438.134 505.746C436.439 514.504 431.702 519.361 424.512 523.139C405.551 533.099 386.951 542.078 366.271 548.211C339.964 556.012 314.811 562.783 287.002 567.211H287.014Z" fill="white"/>
<path id="Vector_5" d="M433.77 413.062C416.673 390.26 402.846 367.027 389.452 342.311C373.293 312.517 366.632 279.913 371.585 245.764C378.511 198.073 406.753 155.988 447.2 131.431C467.868 118.883 483.041 153.854 499.381 160.625C501.329 159.386 503.805 157.644 505.092 156.307C514.001 146.985 522.694 138.374 532.986 130.916C537.458 127.678 542.881 126.929 547.811 129.726C617.894 169.554 649.407 257.932 613.554 332.915C596.409 368.769 565.629 419.723 535.27 444.905C524.966 453.455 511.885 462.397 498.371 463.415C487.959 464.2 478.617 455.552 470.934 449.738C456.71 438.993 444.819 427.77 433.782 413.05L433.77 413.062Z" fill="white"/>
</g>
<defs>
<clipPath id="clip0_1_3">
<rect width="1000" height="1000" fill="white"/>
</clipPath>
</defs>
</svg>
